# xmcd
#
# Track frame offsets:
#	150
#	14763
#	36505
#	52633
#	68789
#	84732
#	101016
#
# Disc length: 1559 seconds
#
# Revision: 0
# Processed by: cddbd v1.5.2PL0 Copyright (c) Steve Scherf et al.
# Submitted via: audiograbber 1.83.01
#
DISCID=58061507
DTITLE=Shag - Shag JC 1-27-07
DYEAR=1900
DGENRE=
TTITLE0=Big Fat Moma
TTITLE1=Your Dress Is Too Short
TTITLE2=Oh Maudie I Love You
TTITLE3=One Dance With You
TTITLE4=Too Much Drink
TTITLE5=Hes Gone
TTITLE6=Big Shella
EXTD=
EXTT0=
EXTT1=
EXTT2=
EXTT3=
EXTT4=
EXTT5=
EXTT6=
PLAYORDER=
